<mxfile host="app.diagrams.net" modified="2023-12-02T06:07:14.981Z" agent="Mozilla/5.0 (Windows NT 10.0; Win64; x64) AppleWebKit/537.36 (KHTML, like Gecko) Chrome/119.0.0.0 Safari/537.36" version="22.1.5" etag="2eKSmcmao_bajsvuOhJJ" type="github">
  <diagram name="페이지-1" id="sAdo_ylRF9yiA8wiWZ0I">
    <mxGraphModel>
      <root>
        <mxCell id="0" />
        <mxCell id="1" parent="0" />
      </root>
    </mxGraphModel>
  </diagram>
</mxfile>
